<svg xmlns="http://www.w3.org/2000/svg" viewBox="0 0 186.5 57"><g fill="#fff"><path d="M0 57h39.5V0H0v57Zm9.4-32.8c0-.2.3-.3.3-.3h.2c0-.2.2-.4.4-.4h.8c.2 0 .3-.2.4-.3 0-4 2.3-7.6 6-9.2 0 0 .1 0 .2-.2l.2-.5.1-.1.3-.2s.1-.2.1-.3v-1.6h-.1v-.8h.2v-.2c0-.2.2-.3.4-.3s.3-.1.3-.3l.3-1.1v-.3c-.2-.2-.3-.5.3-.6.6 0 .4.4.3.6 0 0-.1.2 0 .3l.3 1.1c0 .1.2.3.3.3.2 0 .3.1.3.3v.2h.2V12.7c0 .1 0 .2.1.3l.3.2.1.1.2.5s0 .1.2.2c3.6 1.6 6 5.2 6 9.2 0 .2.2.3.3.3h.8c.2 0 .4.2.5.4h.2s.3 0 .3.3v1.1s0 .2-.1.3l-.5.5s-.1.2-.1.3v2.2c0 .2-.2.4-.4.3h-.2s-.1 0-.1-.1c-.2-1.6-.5-2-.8-2-.2 0-.3-.2-.3-.3-.1-1.6-.6-1.8-.9-1.8-.1 0-.3 0-.3-.2-.5-1-.8-.2-.9.4 0 .2-.2.3-.4.2-.6-.1-.7 1.4-.8 2.2 0 .2-.1.3-.3.3-.5 0-.7 2.1-.7 2.1 0 .1-.1.2-.2.2 0 0-.2 0-.2-.1-.4-2.5-.8-3.1-1.1-3.1-.2 0-.3-.1-.4-.3 0-1.3-.4-1.5-.6-1.5-.1 0-.3 0-.3-.2-.7-1.4-1.1-.3-1.3.3 0 .2-.2.3-.4.2-.6 0-.8 1.7-.8 2.6 0 .1-.1.3-.3.3-.5 0-.6 2.2-.6 2.2v.1c0 .1 0 .2-.2.2 0 0-.2 0-.2-.2v-.2c-.2-2-.5-2.4-.6-2.5-.1 0-.2-.2-.2-.3-.1-1.7-.5-2-.8-2-.2 0-.3-.1-.4-.3-.2-1.2-.8-1.4-.9-1.4-.3.1-.5.3-.6.6 0 .1-.2.2-.4.2-.3 0-.7.3-.9 1.9 0 .2-.2.3-.3.3-.2 0-.5.4-.6 1.8 0 .1-.1.3-.2.3-.2 0-.4 0-.5-.1V26.3s0-.2-.1-.3l-.5-.5s-.1-.2-.1-.3v-1.1Zm13 13.1v1.6h-2.1v-4.8c0-.1 0-.2.1-.3l2.3-1.7h.4l2.3 1.7s.1.2.1.3v4.8h-2.1v-1.6h-1Zm-6.4 0v1.6h-2.1v-4.8c0-.1 0-.2.1-.3l2.3-1.7h.4l2.3 1.7s.1.2.1.3v4.8H17v-1.6h-1ZM7.6 34c0-.1 0-.2.1-.3L10 32h.4l2.3 1.7s.1.2.1.3v4.8h-2.1v-1.6h-1v1.6H7.6V34Zm24.3 15.5H7.6v-7.9c.9 0 1.8.3 2.5 1 .9.9 2.3.9 3.2 0 .3-.2.6-.5.9-.6.5-.2 1-.3 1.5-.3.9 0 1.8.3 2.4 1 .9.9 2.3.9 3.2 0 .3-.3.6-.5 1-.6.5-.2 1-.3 1.5-.3.9 0 1.8.3 2.5 1 .9.9 2.3.9 3.2 0 .7-.6 1.5-1 2.5-1v7.9Zm0-10.7h-2.1v-1.6h-1v1.6h-2.1V34c0-.1 0-.2.1-.3l2.3-1.7h.4l2.3 1.7s.1.2.1.3v4.8ZM186.5 27v-2.9h-7.3V13.6h-3.4V27h10.7Zm-14.7-13.4h-3.4v7.6c0 .8-.2 1.6-.8 2.2-.6.6-1.3.8-2.1.8s-1.5-.3-2.1-.8c-.6-.6-.8-1.4-.8-2.2v-7.6h-3.4v7.6c0 .9.1 1.7.4 2.5.3.7.7 1.4 1.3 1.9.6.5 1.2.9 2 1.2.8.3 1.7.4 2.6.4.9 0 1.8-.1 2.6-.4.7-.3 1.4-.7 2-1.2.6-.5 1-1.2 1.3-1.9.3-.8.5-1.6.5-2.5v-7.5Zm-22.4 3.2 1.7 4.3h-3.4l1.7-4.3Zm-4 10.2 1.3-3.2h5.4l1.3 3.2h3.7l-5.6-13.4h-3.9L141.9 27h3.5Zm-7.7-10.2c.3.3.5.7.5 1.1 0 .4-.2.8-.5 1.1-.3.3-.8.4-1.2.4H133v-3.1h3.5c.4 0 .9.1 1.2.4M133 27v-4.8h3.9c.6 0 1.3-.1 1.9-.3.5-.2 1.1-.5 1.5-.9.9-.8 1.4-1.9 1.3-3 0-.6-.1-1.2-.4-1.7-.2-.5-.6-1-1-1.4-.4-.4-.9-.7-1.5-.9-.6-.2-1.2-.3-1.9-.3h-7.3v13.4h3.4Zm-20.7-10.5V27h3.4V16.5h4.5v-2.9h-12.5v2.9h4.5ZM91.6 27h3.2v-8.1l6.5 8.1h3V13.6h-3.2v7.8l-6.3-7.8h-3.2V27Zm-4.2-13.4H84V27h3.4V13.6Zm-14 3.2 1.7 4.3h-3.4l1.7-4.3ZM69.3 27l1.3-3.2H76l1.3 3.2H81l-5.6-13.4h-3.9L65.8 27h3.5Zm-14.9-.4c1.1.4 2.2.6 3.3.6 1.6 0 3.1-.3 4.4-1.2 1.1-.7 1.7-1.9 1.6-3.2 0-1-.3-1.9-1-2.5-.9-.7-1.9-1.2-3-1.3l-2.9-.5c-.4 0-.9-.2-1.3-.4-.3-.2-.4-.5-.4-.8 0-.4.2-.7.6-.9.5-.2 1.1-.3 1.6-.3.7 0 1.4.1 2.1.4.8.3 1.5.7 2.1 1.2l1.8-2.4c-.8-.6-1.7-1.1-2.7-1.4-1-.3-2.1-.5-3.1-.5-1.5 0-2.9.3-4.2 1.1-1 .7-1.6 1.8-1.5 3 0 .9.3 1.8.9 2.4.7.7 1.6 1.1 2.6 1.2l3 .5c.5 0 1 .2 1.5.5.3.2.5.5.4.9 0 .4-.3.8-.7 1-.6.3-1.2.4-1.8.3-.8 0-1.6-.1-2.3-.4-.8-.4-1.6-.8-2.3-1.4l-1.9 2.4c.9.7 1.9 1.3 2.9 1.6M138.1 36.3l1.1 3h-2.3l1.2-3Zm-2.8 7.1.9-2.3h3.7l.9 2.3h2.5l-3.8-9.4h-2.7l-3.9 9.4h2.4Zm-7.4-7.4v7.4h2.3V36h3.1v-2h-8.5v2.1h3.1Zm-7.2 3.8c-.5 1.4-2.1 2-3.4 1.5-.7-.3-1.2-.8-1.5-1.5-.3-.7-.3-1.5 0-2.2.3-.7.8-1.2 1.4-1.4 1-.4 2.2-.2 2.9.6.2.2.4.5.6.9.3.7.3 1.5 0 2.2m2.2-3.1c-.3-.6-.6-1.1-1.1-1.6-.5-.4-1-.8-1.6-1-1.3-.5-2.7-.5-4 0-.6.2-1.1.6-1.6 1s-.8 1-1.1 1.6a5 5 0 0 0 0 3.8c.2.6.6 1.1 1.1 1.6.5.4 1 .8 1.6 1 1.3.5 2.7.5 4 0 .6-.2 1.1-.6 1.6-1s.8-1 1.1-1.5a5 5 0 0 0 0-3.8m-18.2 6.3c.7.3 1.5.4 2.3.4 1.1 0 2.1-.2 3-.8.7-.5 1.1-1.4 1.1-2.3 0-.7-.2-1.3-.7-1.8-.6-.5-1.3-.8-2.1-.9l-2-.3c-.3 0-.6-.1-.9-.3-.2-.1-.3-.3-.3-.5 0-.3.2-.5.4-.6.3-.2.7-.2 1.1-.2.5 0 1 0 1.5.3.5.2 1 .5 1.4.8l1.2-1.7c-.6-.4-1.2-.8-1.8-1-.7-.2-1.4-.4-2.1-.4-1 0-2 .2-2.8.8-.7.5-1.1 1.3-1 2.2 0 .6.2 1.2.6 1.7.5.5 1.1.8 1.8.9l2.1.4c.4 0 .7.2 1 .3.2.1.3.4.3.6 0 .3-.2.6-.5.7-.4.2-.8.3-1.2.2-.5 0-1.1-.1-1.6-.3-.6-.3-1.1-.6-1.6-1l-1.3 1.7c.6.5 1.3.9 2 1.2m-3.8.1v-2h-5.2v-1.8H99v-1.9h-3.4V36h5.1v-2h-7.4v9.4h7.5Zm-19.1 0h2.2v-5.7l4.4 5.7h2.1V34h-2.2v5.5L83.9 34h-2.2v9.4Zm-11.6 0h2.2v-5.7l4.4 5.7h2.1V34h-2.2v5.5L72.3 34h-2.2v9.4ZM67.2 34h-2.3v9.4h2.3V34Zm-7.4 3v6.4H62V34h-2.9l-2.3 4.5-2.3-4.5h-2.9v9.4h2.1v-6.5l3.1 5.8 3.1-5.8Z"/></g></svg>
